<?xml version="1.0" encoding="UTF-8" standalone="no"?>

<svg
        width="283.49216"
        height="101.41858"
        viewBox="0 0 283.49216 101.41858"
        version="1.1"
        id="svg1"
        xmlns="http://www.w3.org/2000/svg"
>
  <defs
     id="defs1" />
  <g
     id="layer1"
     transform="translate(-324.60098,-515.23828)">
    <g
       id="g18">
      <path
         d="m 529.13027,515.23827 c -4.79111,0 -8.99072,0.80996 -12.59961,2.42774 -3.60889,1.61778 -6.44081,3.91958 -8.49414,6.90625 -1.99111,2.98666 -2.98633,6.59506 -2.98633,10.82617 0,3.29778 0.55969,6.06664 1.67969,8.30664 1.12,2.24 2.58227,4.10628 4.38672,5.59961 1.86667,1.49333 3.88863,2.77035 6.0664,3.82813 2.24,0.99555 4.44918,1.86661 6.62696,2.61328 2.23999,0.68445 4.26195,1.42939 6.0664,2.23828 1.86667,0.74667 3.36047,1.64925 4.48047,2.70703 1.12,0.99555 1.67969,2.27258 1.67969,3.82813 0,1.68 -0.77647,3.01617 -2.33203,4.01172 -1.49333,0.93333 -3.64141,1.40039 -6.44141,1.40039 -3.29778,0 -6.2519,-0.62275 -8.86523,-1.86719 -2.61333,-1.30667 -5.07277,-3.17294 -7.375,-5.59961 l -10.54492,10.64062 c 3.36,3.60889 7.06104,6.25361 11.10546,7.9336 4.10668,1.68 8.92903,2.51953 14.4668,2.51953 8.33778,0 14.80962,-1.80517 19.41406,-5.41406 4.66667,-3.60889 7,-8.71109 7,-15.30664 0,-3.36 -0.55968,-6.2215 -1.67968,-8.58594 -1.12,-2.36445 -2.6138,-4.32531 -4.48047,-5.88086 -1.80445,-1.55556 -3.79684,-2.83062 -5.97461,-3.82618 -2.17778,-0.99555 -4.385,-1.86661 -6.625,-2.61328 -2.17777,-0.74666 -4.20169,-1.46204 -6.06836,-2.14648 -1.80445,-0.74667 -3.26478,-1.5862 -4.38477,-2.51953 -1.12,-0.93333 -1.68164,-2.14729 -1.68164,-3.64063 0,-1.49333 0.65427,-2.64423 1.96094,-3.45312 1.30666,-0.80889 3.10988,-1.21289 5.41211,-1.21289 2.42667,0 4.66737,0.49663 6.7207,1.49218 2.05333,0.99556 4.0753,2.48936 6.06641,4.48047 l 10.64062,-10.54687 c -2.61333,-2.86222 -5.94187,-5.10097 -9.98632,-6.71875 -4.04444,-1.61778 -8.4628,-2.42774 -13.25391,-2.42774 z m -189.04688,1.1211 a 15.483193,15.483193 0 0 0 -15.48242,15.48242 15.483193,15.483193 0 0 0 15.48242,15.48242 15.483193,15.483193 0 0 0 15.48438,-15.48242 15.483193,15.483193 0 0 0 -15.48438,-15.48242 z m 27.52735,0 v 66.17188 h 11.29297 5.41406 10.73242 c 5.04,0 9.67514,-0.77649 13.90625,-2.33204 4.29333,-1.61778 8.02784,-3.89 11.20117,-6.81445 3.17333,-2.92444 5.63083,-6.40868 7.37305,-10.45312 1.80445,-4.04445 2.70703,-8.55543 2.70703,-13.53321 0,-4.91555 -0.90258,-9.39501 -2.70703,-13.43945 -1.74222,-4.04445 -4.19972,-7.52868 -7.37305,-10.45313 -3.17333,-2.92444 -6.90784,-5.16515 -11.20117,-6.7207 -4.29333,-1.61778 -8.99153,-2.42578 -14.09375,-2.42578 h -10.54492 -6.16016 z m 91.46875,0 -25.66602,66.17188 h 17.08008 l 4.07813,-11.57227 h 24.60742 l 3.98047,11.57227 h 17.45312 l -25.38672,-66.17188 z m 101.50781,0 v 66.17188 h 16.70703 v -24.73243 h 29.30664 v -14.09375 h -29.30664 v -13.25391 h 30.79883 v -14.09179 h -30.79883 -3.45312 z m -176.26953,14.37304 h 10.45312 c 3.73334,0 6.96926,0.71538 9.70704,2.14649 2.73777,1.43111 4.85237,3.5457 6.3457,6.3457 1.55555,2.73778 2.33398,6.09786 2.33398,10.08008 0,4.04444 -0.7469,7.49911 -2.24023,10.36133 -1.49333,2.8 -3.63945,4.91459 -6.43945,6.3457 -2.73778,1.43111 -5.9737,2.14649 -9.70704,2.14649 h -10.45312 z m 82.70508,4.88672 7.59765,22.08594 h -15.3789 z m -126.93946,16.29493 a 14.709034,15.262004 0 0 0 -14.70898,15.26172 14.709034,15.262004 0 0 0 14.70898,15.26367 14.709034,15.262004 0 0 0 14.70899,-15.26367 14.709034,15.262004 0 0 0 -14.70899,-15.26172 z"
         style="font-size:93.3333px;line-height:0.75;font-family:Outfit;-inkscape-font-specification:'Outfit, @wght=800';font-variation-settings:'wght' 800;letter-spacing:-0.37px;fill:#8126d9;stroke-width:1.13386;stroke-linejoin:round;paint-order:markers stroke fill"
         id="path18" />
      <path
         d="m 330.3253,611.87675 q -1.01166,0 -1.92215,-0.25291 -0.88519,-0.27821 -1.64394,-0.75874 -0.75874,-0.50583 -1.31515,-1.1887 l 1.4669,-1.4669 q 0.65758,0.80933 1.51749,1.21399 0.8599,0.37937 1.92214,0.37937 1.06224,0 1.64394,-0.35408 0.58171,-0.37937 0.58171,-1.03695 0,-0.65757 -0.48054,-1.01165 -0.45525,-0.37937 -1.1887,-0.607 -0.73345,-0.25291 -1.56806,-0.48053 -0.80933,-0.25292 -1.54278,-0.63229 -0.73345,-0.37937 -1.21399,-1.03695 -0.45524,-0.65757 -0.45524,-1.7451 0,-1.08753 0.53112,-1.87157 0.53112,-0.80932 1.4669,-1.23928 0.96107,-0.42995 2.30152,-0.42995 1.41631,0 2.50384,0.50583 1.11283,0.48054 1.82099,1.4669 l -1.46691,1.4669 q -0.50582,-0.65758 -1.26457,-1.01165 -0.73345,-0.35408 -1.66923,-0.35408 -0.98636,0 -1.51748,0.35408 -0.50583,0.32878 -0.50583,0.93578 0,0.60699 0.45525,0.93578 0.45524,0.32879 1.18869,0.55641 0.75874,0.22762 1.56807,0.48054 0.80932,0.22762 1.54277,0.63228 0.73345,0.40466 1.1887,1.08753 0.48054,0.68287 0.48054,1.79569 0,1.69453 -1.21399,2.68089 -1.1887,0.98636 -3.21201,0.98636 z m 6.90546,-0.25291 v -12.01342 h 2.27622 v 12.01342 z m 1.13811,-14.4161 q -0.63228,0 -1.03695,-0.40466 -0.40466,-0.42995 -0.40466,-1.06224 0,-0.60699 0.40466,-1.01166 0.40467,-0.42995 1.03695,-0.42995 0.63229,0 1.03695,0.42995 0.40466,0.40467 0.40466,1.01166 0,0.63229 -0.40466,1.06224 -0.40466,0.40466 -1.03695,0.40466 z m 4.40163,14.4161 v -12.01342 h 2.27623 v 12.01342 z m 8.11854,0 v -7.25863 q 0,-1.34045 -0.83462,-2.09919 -0.80932,-0.78403 -2.0486,-0.78403 -0.83462,0 -1.49219,0.35408 -0.65758,0.35408 -1.06224,0.98636 -0.40466,0.63229 -0.40466,1.51749 l -0.93578,-0.45525 q 0,-1.36573 0.5817,-2.37739 0.60699,-1.01166 1.64394,-1.56807 1.03695,-0.5817 2.32681,-0.5817 1.26457,0 2.27622,0.55641 1.03695,0.55641 1.61865,1.56807 0.607,1.01165 0.607,2.40268 v 7.73917 z m 8.11854,0 v -7.25863 q 0,-1.34045 -0.83462,-2.09919 -0.80932,-0.78403 -2.02331,-0.78403 -0.83461,0 -1.51748,0.35408 -0.65758,0.35408 -1.06224,0.98636 -0.40466,0.63229 -0.40466,1.51749 l -1.28986,-0.45525 q 0.0759,-1.39103 0.73345,-2.37739 0.68286,-1.01166 1.7451,-1.56807 1.06224,-0.5817 2.32681,-0.5817 1.31515,0 2.3521,0.55641 1.03695,0.55641 1.64394,1.56807 0.63229,1.01165 0.63229,2.42797 v 7.71388 z m 11.60965,0.25291 q -1.36574,0 -2.47856,-0.55641 -1.08753,-0.5817 -1.74511,-1.59335 -0.65757,-1.01166 -0.73345,-2.30152 v -3.61667 q 0.0759,-1.31516 0.73345,-2.30152 0.68287,-1.01166 1.7704,-1.56807 1.11282,-0.5817 2.45327,-0.5817 1.64394,0 2.95909,0.83462 1.34045,0.83461 2.09919,2.25093 0.75874,1.41632 0.75874,3.18672 0,1.7704 -0.75874,3.18671 -0.75874,1.41632 -2.09919,2.25094 -1.31515,0.80932 -2.95909,0.80932 z m -6.32285,4.78008 v -17.04641 h 2.27622 v 3.16143 l -0.42995,2.90851 0.42995,2.9338 v 8.04267 z m 5.94348,-6.92984 q 1.13811,0 1.99802,-0.53112 0.8599,-0.53112 1.36573,-1.44161 0.50583,-0.93579 0.50583,-2.14977 0,-1.1887 -0.50583,-2.12448 -0.50583,-0.93578 -1.36573,-1.44161 -0.85991,-0.53112 -1.97273,-0.53112 -1.13812,0 -1.99802,0.53112 -0.85991,0.50583 -1.34045,1.44161 -0.48053,0.93578 -0.48053,2.14977 0,1.18869 0.45524,2.12448 0.48054,0.91049 1.34045,1.44161 0.88519,0.53112 1.99802,0.53112 z m 8.67587,1.89685 v -18.05806 h 2.27622 v 18.05806 z m 11.07854,0.25291 q -1.79569,0 -3.2373,-0.80932 -1.44161,-0.83462 -2.27623,-2.25094 -0.83461,-1.41631 -0.83461,-3.212 0,-1.7704 0.80932,-3.18672 0.83462,-1.41632 2.22564,-2.22564 1.41632,-0.83462 3.16143,-0.83462 1.66923,0 2.9338,0.75874 1.28986,0.75874 1.99802,2.09919 0.73345,1.34044 0.73345,3.03497 0,0.25291 -0.0253,0.55641 -0.0253,0.2782 -0.10116,0.65757 h -10.14186 v -1.89685 h 8.92787 l -0.83462,0.73345 q 0,-1.21399 -0.42995,-2.0486 -0.42996,-0.85991 -1.21399,-1.31516 -0.78403,-0.48053 -1.89685,-0.48053 -1.16341,0 -2.04861,0.50583 -0.8852,0.50582 -1.36573,1.41631 -0.48054,0.91049 -0.48054,2.14977 0,1.26457 0.50583,2.22565 0.50583,0.93578 1.44161,1.4669 0.93578,0.50583 2.14977,0.50583 1.01165,0 1.84627,-0.35408 0.85991,-0.35408 1.4669,-1.06224 l 1.4669,1.49219 q -0.85991,1.01166 -2.12448,1.54277 -1.23927,0.53112 -2.65559,0.53112 z m 20.03258,0 q -1.94744,0 -3.49021,-0.8599 -1.51749,-0.8852 -2.40269,-2.40269 -0.8852,-1.54277 -0.8852,-3.49021 v -11.05234 h 2.3774 v 11.00176 q 0,1.39102 0.5817,2.40268 0.5817,1.01166 1.56807,1.56807 1.01165,0.55641 2.25093,0.55641 1.28986,0 2.25093,-0.55641 0.98637,-0.55641 1.54278,-1.56807 0.5817,-1.01166 0.5817,-2.37739 v -11.02705 h 2.40269 v 11.07763 q 0,1.94744 -0.8852,3.46492 -0.8852,1.51749 -2.40269,2.40269 -1.51748,0.8599 -3.49021,0.8599 z m 12.16608,-0.25291 v -2.17506 h 4.88125 q 1.94743,0 3.41433,-0.83462 1.46691,-0.8599 2.27623,-2.3521 0.83462,-1.49219 0.83462,-3.43963 0,-1.92214 -0.83462,-3.41434 -0.83462,-1.49219 -2.30152,-2.32681 -1.4669,-0.83461 -3.38904,-0.83461 h -4.85595 v -2.17506 h 4.90653 q 1.92214,0 3.54079,0.65757 1.64395,0.65758 2.83264,1.84628 1.21399,1.18869 1.87156,2.78205 0.68287,1.59336 0.68287,3.49021 0,1.87157 -0.68287,3.49022 -0.65757,1.59336 -1.84627,2.78205 -1.18869,1.1887 -2.83263,1.84627 -1.61865,0.65758 -3.51551,0.65758 z m -1.56806,0 v -17.55223 h 2.37739 v 17.55223 z m 20.20872,-6.82868 v -2.07389 h 4.78008 q 0.98636,0 1.7451,-0.40467 0.78404,-0.40466 1.21399,-1.13811 0.45524,-0.73345 0.45524,-1.7451 0,-1.01166 -0.45524,-1.74511 -0.42995,-0.73345 -1.21399,-1.13811 -0.75874,-0.40467 -1.7451,-0.40467 h -4.78008 v -2.07389 h 4.93182 q 1.61865,0 2.88322,0.65757 1.28986,0.65758 2.02332,1.87157 0.75874,1.18869 0.75874,2.83264 0,1.61864 -0.75874,2.83263 -0.73346,1.1887 -2.02332,1.87157 -1.26457,0.65757 -2.88322,0.65757 z m -1.59336,6.82868 v -17.55223 h 2.37739 v 17.55223 z m 23.34581,0.25291 q -1.01165,0 -1.92214,-0.25291 -0.8852,-0.27821 -1.64394,-0.75874 -0.75875,-0.50583 -1.31516,-1.1887 l 1.4669,-1.4669 q 0.65758,0.80933 1.51749,1.21399 0.85991,0.37937 1.92215,0.37937 1.06223,0 1.64394,-0.35408 0.5817,-0.37937 0.5817,-1.03695 0,-0.65757 -0.48054,-1.01165 -0.45524,-0.37937 -1.18869,-0.607 -0.73345,-0.25291 -1.56807,-0.48053 -0.80933,-0.25292 -1.54278,-0.63229 -0.73345,-0.37937 -1.21398,-1.03695 -0.45525,-0.65757 -0.45525,-1.7451 0,-1.08753 0.53112,-1.87157 0.53112,-0.80932 1.4669,-1.23928 0.96108,-0.42995 2.30152,-0.42995 1.41632,0 2.50385,0.50583 1.11282,0.48054 1.82098,1.4669 l -1.4669,1.4669 q -0.50583,-0.65758 -1.26457,-1.01165 -0.73345,-0.35408 -1.66923,-0.35408 -0.98637,0 -1.51749,0.35408 -0.50583,0.32878 -0.50583,0.93578 0,0.60699 0.45525,0.93578 0.45524,0.32879 1.18869,0.55641 0.75875,0.22762 1.56807,0.48054 0.80933,0.22762 1.54278,0.63228 0.73345,0.40466 1.18869,1.08753 0.48054,0.68287 0.48054,1.79569 0,1.69453 -1.21399,2.68089 -1.18869,0.98636 -3.21201,0.98636 z m 13.20301,0 q -1.36574,0 -2.47856,-0.55641 -1.08753,-0.5817 -1.7451,-1.59335 -0.65758,-1.01166 -0.73345,-2.30152 v -3.61667 q 0.0759,-1.31516 0.73345,-2.30152 0.68286,-1.01166 1.77039,-1.56807 1.11283,-0.5817 2.45327,-0.5817 1.64394,0 2.95909,0.83462 1.34045,0.83461 2.09919,2.25093 0.75874,1.41632 0.75874,3.18672 0,1.7704 -0.75874,3.18671 -0.75874,1.41632 -2.09919,2.25094 -1.31515,0.80932 -2.95909,0.80932 z m -6.32285,4.78008 v -17.04641 h 2.27623 v 3.16143 l -0.42996,2.90851 0.42996,2.9338 v 8.04267 z m 5.94348,-6.92984 q 1.13811,0 1.99802,-0.53112 0.85991,-0.53112 1.36574,-1.44161 0.50582,-0.93579 0.50582,-2.14977 0,-1.1887 -0.50582,-2.12448 -0.50583,-0.93578 -1.36574,-1.44161 -0.85991,-0.53112 -1.97273,-0.53112 -1.13811,0 -1.99802,0.53112 -0.85991,0.50583 -1.34044,1.44161 -0.48054,0.93578 -0.48054,2.14977 0,1.18869 0.45524,2.12448 0.48054,0.91049 1.34045,1.44161 0.8852,0.53112 1.99802,0.53112 z m 14.23998,2.14976 q -1.79569,0 -3.2373,-0.80932 -1.44161,-0.83462 -2.27622,-2.25094 -0.83462,-1.41631 -0.83462,-3.212 0,-1.7704 0.80933,-3.18672 0.83461,-1.41632 2.22564,-2.22564 1.41632,-0.83462 3.16142,-0.83462 1.66924,0 2.93381,0.75874 1.28986,0.75874 1.99802,2.09919 0.73345,1.34044 0.73345,3.03497 0,0.25291 -0.0253,0.55641 -0.0253,0.2782 -0.10117,0.65757 h -10.14185 v -1.89685 h 8.92786 l -0.83461,0.73345 q 0,-1.21399 -0.42996,-2.0486 -0.42995,-0.85991 -1.21398,-1.31516 -0.78404,-0.48053 -1.89686,-0.48053 -1.1634,0 -2.0486,0.50583 -0.8852,0.50582 -1.36574,1.41631 -0.48053,0.91049 -0.48053,2.14977 0,1.26457 0.50582,2.22565 0.50583,0.93578 1.44161,1.4669 0.93579,0.50583 2.14977,0.50583 1.01166,0 1.84627,-0.35408 0.85991,-0.35408 1.46691,-1.06224 l 1.4669,1.49219 q -0.85991,1.01166 -2.12448,1.54277 -1.23928,0.53112 -2.6556,0.53112 z m 13.38005,0 q -1.7704,0 -3.21201,-0.83461 -1.41632,-0.83462 -2.25094,-2.25094 -0.80932,-1.44161 -0.80932,-3.18671 0,-1.7704 0.80932,-3.18672 0.83462,-1.41632 2.25094,-2.22564 1.44161,-0.83462 3.21201,-0.83462 1.39102,0 2.57972,0.53112 1.18869,0.50583 2.0486,1.49219 l -1.51748,1.51749 q -0.55641,-0.65758 -1.36574,-0.98637 -0.78403,-0.35408 -1.7451,-0.35408 -1.13812,0 -2.02332,0.53112 -0.8852,0.50583 -1.39102,1.41632 -0.50583,0.91049 -0.50583,2.09919 0,1.18869 0.50583,2.09918 0.50582,0.91049 1.39102,1.44161 0.8852,0.53112 2.02332,0.53112 0.96107,0 1.7451,-0.32879 0.80933,-0.35408 1.39103,-1.01165 l 1.49219,1.51748 q -0.83461,0.96108 -2.0486,1.49219 -1.1887,0.53112 -2.57972,0.53112 z m 6.8043,-0.25291 v -12.01342 h 2.27622 v 12.01342 z m 1.13811,-14.4161 q -0.63229,0 -1.03695,-0.40466 -0.40466,-0.42995 -0.40466,-1.06224 0,-0.60699 0.40466,-1.01166 0.40466,-0.42995 1.03695,-0.42995 0.63228,0 1.03695,0.42995 0.40466,0.40467 0.40466,1.01166 0,0.63229 -0.40466,1.06224 -0.40467,0.40466 -1.03695,0.40466 z m 6.12144,14.4161 v -14.18848 q 0,-1.18869 0.50583,-2.09918 0.53112,-0.93578 1.4669,-1.4669 0.93578,-0.55641 2.14977,-0.55641 0.93578,0 1.64394,0.32878 0.70816,0.3035 1.31515,0.85991 l -1.49219,1.49219 q -0.32879,-0.2782 -0.68287,-0.40466 -0.35408,-0.15175 -0.78403,-0.15175 -0.8852,0 -1.36573,0.55641 -0.48054,0.53112 -0.48054,1.44161 v 14.18848 z m -2.95909,-9.93952 v -2.0739 h 11.40642 v 2.0739 z m 10.09127,9.93952 v -12.01342 h 2.30151 v 12.01342 z m 1.13811,-13.27799 q -0.60699,0 -1.01166,-0.40466 -0.40466,-0.42995 -0.40466,-1.06224 0,-0.60699 0.40466,-1.01165 0.40467,-0.42996 1.01166,-0.42996 0.65758,0 1.03695,0.42996 0.40466,0.40466 0.40466,1.01165 0,0.63229 -0.40466,1.06224 -0.37937,0.40466 -1.03695,0.40466 z m 9.78957,13.5309 q -1.77039,0 -3.212,-0.83461 -1.41632,-0.83462 -2.25094,-2.25094 -0.80932,-1.44161 -0.80932,-3.18671 0,-1.7704 0.80932,-3.18672 0.83462,-1.41632 2.25094,-2.22564 1.44161,-0.83462 3.212,-0.83462 1.39103,0 2.57973,0.53112 1.18869,0.50583 2.0486,1.49219 l -1.51748,1.51749 q -0.55641,-0.65758 -1.36574,-0.98637 -0.78403,-0.35408 -1.74511,-0.35408 -1.13811,0 -2.02331,0.53112 -0.8852,0.50583 -1.39103,1.41632 -0.50582,0.91049 -0.50582,2.09919 0,1.18869 0.50582,2.09918 0.50583,0.91049 1.39103,1.44161 0.8852,0.53112 2.02331,0.53112 0.96108,0 1.74511,-0.32879 0.80933,-0.35408 1.39103,-1.01165 l 1.49219,1.51748 q -0.83462,0.96108 -2.0486,1.49219 -1.1887,0.53112 -2.57973,0.53112 z m 11.64764,0 q -1.64394,0 -2.98438,-0.80932 -1.34045,-0.83462 -2.12448,-2.25094 -0.75874,-1.41631 -0.75874,-3.18671 0,-1.7704 0.75874,-3.18672 0.78403,-1.41632 2.09918,-2.25093 1.34045,-0.83462 3.00968,-0.83462 1.36574,0 2.42798,0.5817 1.08753,0.55641 1.7451,1.56807 0.65758,0.98636 0.73345,2.30152 v 3.61667 q -0.0759,1.28986 -0.73345,2.30152 -0.63228,1.01165 -1.71981,1.59335 -1.06224,0.55641 -2.45327,0.55641 z m 0.37937,-2.14976 q 1.69453,0 2.73147,-1.13812 1.03695,-1.1634 1.03695,-2.95909 0,-1.23928 -0.48054,-2.14977 -0.45524,-0.93578 -1.31515,-1.44161 -0.85991,-0.53112 -1.99802,-0.53112 -1.13811,0 -2.02331,0.53112 -0.85991,0.53112 -1.36574,1.4669 -0.48053,0.91049 -0.48053,2.09919 0,1.21398 0.48053,2.14977 0.50583,0.91049 1.39103,1.44161 0.8852,0.53112 2.02331,0.53112 z m 3.61667,1.89685 v -3.2373 l 0.42996,-2.9338 -0.42996,-2.90851 v -2.93381 h 2.30152 v 12.01342 z m 7.31017,0 v -17.0464 h 2.27623 v 17.0464 z m -2.95909,-9.93952 v -2.0739 h 8.19441 v 2.0739 z m 10.34508,9.93952 v -12.01342 h 2.27623 v 12.01342 z m 1.13811,-14.4161 q -0.63228,0 -1.03694,-0.40466 -0.40467,-0.42995 -0.40467,-1.06224 0,-0.60699 0.40467,-1.01166 0.40466,-0.42995 1.03694,-0.42995 0.63229,0 1.03695,0.42995 0.40466,0.40467 0.40466,1.01166 0,0.63229 -0.40466,1.06224 -0.40466,0.40466 -1.03695,0.40466 z m 9.88987,14.66901 q -1.7704,0 -3.18672,-0.83461 -1.41632,-0.83462 -2.25093,-2.25094 -0.83462,-1.44161 -0.83462,-3.212 0,-1.74511 0.83462,-3.13614 0.83461,-1.41632 2.25093,-2.25093 1.41632,-0.83462 3.18672,-0.83462 1.7451,0 3.16142,0.83462 1.44161,0.80932 2.27623,2.22564 0.83461,1.41632 0.83461,3.16143 0,1.77039 -0.83461,3.212 -0.83462,1.41632 -2.27623,2.25094 -1.41632,0.83461 -3.16142,0.83461 z m 0,-2.20035 q 1.13811,0 2.02331,-0.53112 0.8852,-0.53112 1.39103,-1.44161 0.50582,-0.93578 0.50582,-2.12447 0,-1.16341 -0.53112,-2.0739 -0.50582,-0.91049 -1.39102,-1.41632 -0.85991,-0.53112 -1.99802,-0.53112 -1.13812,0 -2.02331,0.53112 -0.8852,0.50583 -1.39103,1.41632 -0.50583,0.91049 -0.50583,2.0739 0,1.18869 0.50583,2.12447 0.50583,0.91049 1.39103,1.44161 0.88519,0.53112 2.02331,0.53112 z m 17.22435,1.94744 v -7.00572 q 0,-1.36573 -0.85991,-2.25093 -0.85991,-0.8852 -2.22564,-0.8852 -0.91049,0 -1.61865,0.40466 -0.70816,0.40466 -1.11282,1.11282 -0.40466,0.70816 -0.40466,1.61865 l -0.93579,-0.53112 q 0,-1.36573 0.607,-2.42797 0.60699,-1.06224 1.69452,-1.66923 1.08753,-0.63229 2.45327,-0.63229 1.36573,0 2.40268,0.68287 1.06224,0.68287 1.66923,1.79569 0.607,1.08753 0.607,2.32681 v 7.46096 z m -8.49791,0 v -12.01342 h 2.27623 v 12.01342 z m 17.57843,0.25291 q -1.01166,0 -1.92215,-0.25291 -0.8852,-0.27821 -1.64394,-0.75874 -0.75874,-0.50583 -1.31515,-1.1887 l 1.4669,-1.4669 q 0.65758,0.80933 1.51749,1.21399 0.8599,0.37937 1.92214,0.37937 1.06224,0 1.64394,-0.35408 0.58171,-0.37937 0.58171,-1.03695 0,-0.65757 -0.48054,-1.01165 -0.45525,-0.37937 -1.1887,-0.607 -0.73345,-0.25291 -1.56806,-0.48053 -0.80933,-0.25292 -1.54278,-0.63229 -0.73345,-0.37937 -1.21399,-1.03695 -0.45524,-0.65757 -0.45524,-1.7451 0,-1.08753 0.53112,-1.87157 0.53112,-0.80932 1.4669,-1.23928 0.96107,-0.42995 2.30152,-0.42995 1.41631,0 2.50384,0.50583 1.11283,0.48054 1.82099,1.4669 l -1.46691,1.4669 q -0.50582,-0.65758 -1.26457,-1.01165 -0.73345,-0.35408 -1.66923,-0.35408 -0.98636,0 -1.51748,0.35408 -0.50583,0.32878 -0.50583,0.93578 0,0.60699 0.45525,0.93578 0.45524,0.32879 1.18869,0.55641 0.75874,0.22762 1.56807,0.48054 0.80932,0.22762 1.54277,0.63228 0.73345,0.40466 1.1887,1.08753 0.48054,0.68287 0.48054,1.79569 0,1.69453 -1.21399,2.68089 -1.1887,0.98636 -3.21201,0.98636 z"
         id="text18"
         style="font-size:25.2914px;line-height:0.75;font-family:Outfit;-inkscape-font-specification:'Outfit, @wght=400';font-variation-settings:'wght' 400;letter-spacing:-0.100262px;fill:#cea4fe;stroke-width:0.307253;stroke-linejoin:round;paint-order:markers stroke fill"
         aria-label="simple UDP specifications" />
    </g>
  </g>
  <g
     id="g3"
     transform="translate(-7.0771331,-515.23826)">
    <g
       id="g2">
      <path
         d="m 340.08339,516.35937 c -8.55053,4.3e-4 -15.48199,6.93189 -15.48242,15.48242 4.3e-4,8.55053 6.93189,15.48199 15.48242,15.48242 8.55129,6.6e-4 15.48395,-6.93113 15.48438,-15.48242 -4.3e-4,-8.55129 -6.93309,-15.48308 -15.48438,-15.48242 z m 27.52735,0 v 66.17188 h 11.29297 5.41406 10.73242 c 5.04,0 9.67514,-0.77649 13.90625,-2.33204 4.29333,-1.61778 8.02784,-3.89 11.20117,-6.81445 3.17333,-2.92444 5.63083,-6.40868 7.37305,-10.45312 1.80445,-4.04445 2.70703,-8.55543 2.70703,-13.53321 0,-4.91555 -0.90258,-9.39501 -2.70703,-13.43945 -1.74222,-4.04445 -4.19972,-7.52868 -7.37305,-10.45313 -3.17333,-2.92444 -6.90784,-5.16515 -11.20117,-6.7207 -4.29333,-1.61778 -8.99153,-2.42578 -14.09375,-2.42578 h -10.54492 -6.16016 z m 16.70703,14.37304 h 10.45312 c 3.73334,0 6.96926,0.71538 9.70704,2.14649 2.73777,1.43111 4.85237,3.5457 6.3457,6.3457 1.55555,2.73778 2.33398,6.09786 2.33398,10.08008 0,4.04444 -0.7469,7.49911 -2.24023,10.36133 -1.49333,2.8 -3.63945,4.91459 -6.43945,6.3457 -2.73778,1.43111 -5.9737,2.14649 -9.70704,2.14649 h -10.45312 z m -44.23438,21.18165 c -8.12345,3e-5 -14.70883,6.83288 -14.70898,15.26172 -8.9e-4,8.4296 6.5848,15.26364 14.70898,15.26367 8.12419,-3e-5 14.70988,-6.83407 14.70899,-15.26367 -1.5e-4,-8.42884 -6.58554,-15.26169 -14.70899,-15.26172 z"
         style="font-size:93.3333px;line-height:0.75;font-family:Outfit;-inkscape-font-specification:'Outfit, @wght=800';font-variation-settings:'wght' 800;letter-spacing:-0.37px;fill:#ffffff;fill-opacity:1;stroke-width:1.13386;stroke-linejoin:round;paint-order:markers stroke fill"
         id="path1"/>
    </g>
  </g>
</svg>
