<svg width="160" height="80" viewBox="0 0 160 80" fill="none" xmlns="http://www.w3.org/2000/svg">
<g clip-path="url(#clip0_4382_308986)">
<path d="M0 41.8305C2.43678 43.4327 5.03941 44.7671 7.76264 45.8105C9.89968 46.6239 12.1626 47.0571 14.4489 47.0905C16.8295 47.2004 19.1759 46.492 21.0979 45.0832C21.9081 44.4821 22.5625 43.6958 23.0066 42.7901C23.4507 41.8844 23.6715 40.8855 23.6506 39.8769C23.663 38.1323 23.0586 36.4394 21.9443 35.097C20.2376 33.2349 18.2253 31.6779 15.9944 30.4934L12.0771 28.1498C8.09961 25.8262 5.27842 23.5453 3.61359 21.3071C1.95437 19.0887 1.0757 16.3836 1.11453 13.6136C1.05813 11.7507 1.42343 9.89919 2.18313 8.19734C2.94283 6.49549 4.07729 4.98732 5.50176 3.78551C8.42354 1.2613 12.2332 -0.000507481 16.9307 9.8573e-05C19.1651 -0.00577466 21.3925 0.250829 23.567 0.764635C25.8103 1.30967 27.9861 2.10241 30.0542 3.12824L29.766 11.3391C27.5773 10.1179 25.287 9.08863 22.9206 8.26273C21.2154 7.66074 19.4259 7.33125 17.618 7.28638C15.6085 7.17317 13.6181 7.72911 11.958 8.86727C11.289 9.36534 10.7512 10.0187 10.3911 10.771C10.0309 11.5233 9.85923 12.3519 9.8908 13.1854C9.89581 14.6193 10.434 16 11.4008 17.059C13.0494 18.7078 14.9376 20.098 17.0016 21.1826L20.7743 23.3498C25.1379 25.9092 28.2412 28.4507 30.0842 30.9743C31.9284 33.4916 32.9004 36.5422 32.8524 39.6624C32.925 41.7667 32.5213 43.8602 31.6712 45.7865C30.8211 47.7128 29.5468 49.4222 27.9433 50.7868C24.6743 53.608 20.3198 55.0186 14.8798 55.0186C12.4332 55.0238 9.99298 54.7675 7.60082 54.254C5.26195 53.7529 2.98853 52.9842 0.825445 51.9631L0 41.8305Z" fill="#004E90"/>
<path d="M42.8586 53.2549V1.76099H52.0621V53.2549H42.8586Z" fill="#004E90"/>
<path d="M65.1274 53.2549V1.76099H77.7073C87.4357 1.76099 95.0738 4.05732 100.622 8.65C106.169 13.2427 108.943 19.529 108.941 27.5089C109.025 31.9716 107.888 36.3724 105.652 40.236C103.315 44.0832 99.9966 47.2403 96.038 49.3841C93.6106 50.7773 90.9781 51.7778 88.2381 52.3486C84.7682 53.0113 81.2394 53.3159 77.7073 53.2577L65.1274 53.2549ZM74.1864 45.0505H78.8937C85.3869 45.0505 90.4608 43.4938 94.1153 40.3805C97.7698 37.2673 99.5967 32.9767 99.5961 27.5089C99.5961 22.0156 97.7692 17.7181 94.1153 14.6163C90.4614 11.5145 85.3875 9.96423 78.8937 9.96544H74.1864V45.0505Z" fill="#004E90"/>
<path d="M118.195 53.2549H108.922L134.548 0.0737305H135.268L159.995 53.2549H150.359L146.159 44.0887H122.474L118.195 53.2549ZM125.852 36.736H142.926L134.479 17.5144L125.852 36.736Z" fill="#004E90"/>
<path d="M3.37995 79.5753H1.1427L7.32445 66.5828H7.49626L13.4689 79.5753H11.1426L10.1262 77.3354H4.41539L3.37995 79.5753ZM5.22811 75.5399H9.35079L7.3099 70.8445L5.22811 75.5399Z" fill="#004E90"/>
<path d="M14.228 71.7546H16.2852V76.6409C16.2714 76.8368 16.2964 77.0334 16.3588 77.2195C16.4212 77.4056 16.5198 77.5776 16.6489 77.7255C16.7908 77.8567 16.958 77.9575 17.1403 78.0217C17.3226 78.086 17.516 78.1123 17.7088 78.0991C18.2742 78.1374 18.8337 77.9644 19.2788 77.6137C19.4666 77.4348 19.6128 77.2169 19.7071 76.9753C19.8013 76.7336 19.8413 76.4743 19.8243 76.2155V71.7546H21.8897V79.5727L20.0234 79.9464L19.9479 78.3682C19.5671 78.8376 19.0944 79.2243 18.5588 79.5046C18.0505 79.7565 17.4898 79.8845 16.9225 79.8782C16.5566 79.904 16.1893 79.8542 15.8435 79.7319C15.4977 79.6096 15.1808 79.4174 14.9125 79.1673C14.4176 78.5901 14.1703 77.8411 14.2243 77.0828L14.228 71.7546Z" fill="#004E90"/>
<path d="M24.5115 76.3901V73.481H23.2697V71.7538H24.5115V69.412L26.6124 69.0383V71.7547H28.7815V73.4819H26.6124V76.4064C26.5667 77.0974 26.6654 77.7903 26.9024 78.441C27.1562 78.8991 27.5179 79.2885 27.956 79.5755L25.6315 79.81C25.2488 79.5922 24.9447 79.2591 24.7624 78.8582C24.5553 78.1954 24.4702 77.5005 24.5115 76.8073V76.3901Z" fill="#004E90"/>
<path d="M29.5124 75.6599C29.4928 75.0964 29.5891 74.5348 29.7953 74.01C30.0016 73.4852 30.3133 73.0083 30.7113 72.6088C31.1092 72.2093 31.5849 71.8957 32.1089 71.6875C32.633 71.4792 33.1941 71.3808 33.7578 71.3981C34.3186 71.38 34.8771 71.4774 35.3987 71.6843C35.9203 71.8912 36.3937 72.2032 36.7895 72.6009C37.5577 73.4364 37.984 74.5299 37.984 75.6649C37.984 76.7999 37.5577 77.8935 36.7895 78.729C36.3935 79.1263 35.92 79.438 35.3985 79.6446C34.8769 79.8512 34.3184 79.9483 33.7578 79.9299C33.1932 79.9472 32.6312 79.8483 32.1064 79.6394C31.5817 79.4304 31.1055 79.1159 30.7074 78.7152C30.3094 78.3146 29.9979 77.8364 29.7923 77.3103C29.5867 76.7843 29.4914 76.2216 29.5124 75.6572V75.6599ZM31.6214 75.679C31.5902 76.3613 31.8011 77.0326 32.2169 77.5744C32.3994 77.8072 32.6337 77.9942 32.9012 78.1205C33.1687 78.2467 33.462 78.3088 33.7578 78.3017C34.0505 78.3074 34.3406 78.2447 34.6048 78.1184C34.8691 77.9921 35.1001 77.8059 35.2796 77.5744C35.6656 77.0174 35.8725 76.3558 35.8725 75.6781C35.8725 75.0004 35.6656 74.3388 35.2796 73.7817C35.1 73.5493 34.8683 73.3624 34.6031 73.2361C34.338 73.1097 34.0468 73.0475 33.7532 73.0545C33.4575 73.0474 33.1642 73.1094 32.8967 73.2357C32.6292 73.362 32.3948 73.5489 32.2123 73.7817C31.7988 74.3252 31.5896 74.9968 31.6214 75.679Z" fill="#004E90"/>
<path d="M39.4123 76.7791C40.0002 77.1701 40.6287 77.4962 41.2868 77.7518C41.8023 77.9494 42.3485 78.0547 42.9004 78.0627C43.476 78.09 44.0433 77.9172 44.5059 77.5736C44.7021 77.4255 44.8603 77.2328 44.9674 77.0116C45.0746 76.7903 45.1277 76.5467 45.1222 76.3009C45.1251 75.8759 44.9798 75.4631 44.7113 75.1337C44.2996 74.6801 43.8135 74.3001 43.2741 74.01L42.3286 73.4373C41.545 73.0185 40.8503 72.4513 40.2832 71.7673C39.882 71.2239 39.6705 70.5637 39.6814 69.8883C39.6672 69.4348 39.7549 68.9839 39.9378 68.5688C40.1208 68.1536 40.3944 67.7847 40.7386 67.4892C41.5115 66.8494 42.4945 66.5195 43.4968 66.5637C44.0359 66.5625 44.5733 66.625 45.0977 66.7501C45.6397 66.883 46.1649 67.077 46.6631 67.3283L46.5949 69.3283C46.0666 69.031 45.5137 68.7798 44.9422 68.5774C44.5302 68.4309 44.0976 68.3505 43.6604 68.3392C43.1757 68.3124 42.6958 68.448 42.2968 68.7246C42.1352 68.8477 42.0056 69.0078 41.9189 69.1915C41.8322 69.3752 41.7909 69.5771 41.7986 69.7801C41.7996 70.1292 41.929 70.4657 42.1623 70.7255C42.5606 71.1277 43.0172 71.4676 43.5168 71.7337L44.4259 72.2628C45.2935 72.7296 46.0593 73.3647 46.6786 74.1309C47.1236 74.748 47.3579 75.492 47.3467 76.2527C47.3649 76.765 47.2682 77.2748 47.0637 77.7448C46.8592 78.2148 46.5521 78.6331 46.1649 78.9691C45.2764 79.6912 44.1521 80.0591 43.0086 80.0018C42.4182 80.003 41.8293 79.9405 41.2523 79.8154C40.687 79.6927 40.1379 79.5048 39.6159 79.2554L39.4123 76.7791Z" fill="#004E90"/>
<path d="M48.7576 75.6601C48.7377 75.0967 48.8337 74.5352 49.0396 74.0103C49.2455 73.4855 49.557 73.0086 49.9547 72.609C50.3525 72.2095 50.828 71.8959 51.3519 71.6876C51.8758 71.4794 52.4368 71.3809 53.0003 71.3983C53.5614 71.3805 54.1201 71.4781 54.6419 71.685C55.1637 71.8919 55.6375 72.2036 56.0339 72.601C56.8009 73.4371 57.2264 74.5305 57.2264 75.6651C57.2264 76.7997 56.8009 77.893 56.0339 78.7291C55.2105 79.5016 54.1235 79.931 52.9945 79.9299C51.8655 79.9287 50.7794 79.497 49.9576 78.7228C49.5598 78.3207 49.2482 77.8418 49.0418 77.3151C48.8355 76.7885 48.7388 76.2253 48.7576 75.6601ZM50.8649 75.6792C50.8339 76.3611 51.0448 77.0321 51.4603 77.5737C51.6428 77.8065 51.8772 77.9935 52.1447 78.1197C52.4122 78.246 52.7055 78.308 53.0012 78.3009C53.294 78.3067 53.5841 78.2439 53.8483 78.1176C54.1125 77.9914 54.3436 77.8051 54.523 77.5737C54.9381 77.0332 55.149 76.3636 55.1185 75.6828C55.1497 74.9996 54.9414 74.3269 54.5294 73.781C54.3493 73.5487 54.1172 73.3619 53.8518 73.2356C53.5864 73.1093 53.2951 73.047 53.0012 73.0537C52.7055 73.0466 52.4122 73.1087 52.1447 73.2349C51.8772 73.3612 51.6428 73.5482 51.4603 73.781C51.045 74.3241 50.8341 74.9961 50.8649 75.6792Z" fill="#004E90"/>
<path d="M61.4557 79.5746H59.3548V73.4838H58.113V71.7565H59.3548V71.0911C59.3381 70.3329 59.4538 69.5777 59.6966 68.8593C59.9293 68.2286 60.2984 67.6571 60.7775 67.1856L63.6247 66.812V67.3929C62.9444 67.6078 62.3611 68.0547 61.9766 68.6556C61.5965 69.3731 61.4181 70.1802 61.4602 70.9911V71.7547H63.6293V73.4819H61.4557V79.5746Z" fill="#004E90"/>
<path d="M65.3783 76.3901V73.481H64.1365V71.7538H65.3783V69.412L67.4774 69.0383V71.7547H69.6483V73.4819H67.4774V76.4064C67.4323 77.0976 67.532 77.7905 67.7701 78.441C68.0233 78.8996 68.3851 79.2891 68.8238 79.5755L66.4965 79.81C66.1141 79.5923 65.8105 79.2591 65.6292 78.8582C65.4221 78.1954 65.3371 77.5005 65.3783 76.8073V76.3901Z" fill="#004E90"/>
<path d="M73.3682 79.5753L75.9464 66.5828H76.0936L80.59 75.7908L85.0645 66.5828H85.2035L87.7644 79.5753H85.6099L84.239 72.4663L80.68 80.0008H80.4891L76.7918 72.4663L75.4209 79.5753H73.3682Z" fill="#004E90"/>
<path d="M89.3699 71.7546H91.4272V76.6409C91.4133 76.8368 91.4383 77.0334 91.5007 77.2195C91.5631 77.4056 91.6617 77.5776 91.7908 77.7255C91.9327 77.8567 92.0999 77.9575 92.2822 78.0217C92.4645 78.086 92.658 78.1123 92.8508 78.0991C93.4162 78.1374 93.9756 77.9644 94.4208 77.6137C94.6085 77.4348 94.7547 77.2169 94.849 76.9753C94.9433 76.7336 94.9833 76.4743 94.9662 76.2155V71.7546H97.0353V79.5727L95.1689 79.9464L95.0926 78.3664C94.7117 78.8358 94.2391 79.2225 93.7035 79.5027C93.1952 79.7546 92.6344 79.8827 92.0671 79.8764C91.7013 79.9022 91.334 79.8524 90.9882 79.7301C90.6424 79.6078 90.3255 79.4156 90.0572 79.1655C89.5623 78.5883 89.315 77.8393 89.369 77.0809L89.3699 71.7546Z" fill="#004E90"/>
<path d="M101.344 79.5744H99.2452V67.19L101.344 66.8164V79.5744Z" fill="#004E90"/>
<path d="M104.027 76.3901V73.481H102.785V71.7538H104.027V69.412L106.128 69.0383V71.7547H108.297V73.4819H106.128V76.4064C106.082 77.0974 106.181 77.7903 106.418 78.441C106.672 78.8992 107.034 79.2886 107.472 79.5755L105.148 79.81C104.765 79.5922 104.461 79.2591 104.279 78.8582C104.072 78.1954 103.987 77.5005 104.028 76.8073L104.027 76.3901Z" fill="#004E90"/>
<path d="M109.472 68.8556C109.47 68.6904 109.501 68.5265 109.564 68.3736C109.626 68.2206 109.719 68.0819 109.836 67.9656C109.951 67.8487 110.088 67.7558 110.239 67.6925C110.39 67.6291 110.553 67.5964 110.716 67.5964C110.88 67.5964 111.043 67.6291 111.194 67.6925C111.345 67.7558 111.482 67.8487 111.597 67.9656C111.714 68.0819 111.807 68.2206 111.869 68.3736C111.932 68.5265 111.963 68.6904 111.961 68.8556C111.963 69.0177 111.932 69.1786 111.87 69.3281C111.807 69.4777 111.714 69.6127 111.597 69.7247C111.36 69.9516 111.045 70.0783 110.716 70.0783C110.388 70.0783 110.073 69.9516 109.836 69.7247C109.719 69.6127 109.626 69.4777 109.563 69.3281C109.501 69.1786 109.47 69.0177 109.472 68.8556ZM111.764 79.5755H109.663V71.7574L111.764 71.3837V79.5755Z" fill="#004E90"/>
<path d="M121.396 79.5746H119.33V74.7737C119.356 74.3847 119.237 73.9999 118.997 73.6928C118.871 73.5625 118.719 73.4611 118.55 73.396C118.382 73.3308 118.201 73.3033 118.02 73.3156C117.488 73.279 116.963 73.4541 116.559 73.8028C116.382 73.9871 116.245 74.2062 116.157 74.4461C116.07 74.686 116.033 74.9416 116.05 75.1965V79.5719H113.984V71.7538H115.902V73.0647C116.261 72.5943 116.713 72.2026 117.23 71.9138C117.714 71.6602 118.254 71.5306 118.801 71.5365C119.32 71.5209 119.833 71.6516 120.28 71.9138C120.716 72.1981 121.066 72.5961 121.292 73.0647C121.634 72.5913 122.08 72.2025 122.595 71.9283C123.092 71.6668 123.647 71.5322 124.209 71.5365C124.556 71.5115 124.905 71.5618 125.232 71.6839C125.558 71.8059 125.854 71.9969 126.1 72.2438C126.569 72.8354 126.799 73.5817 126.743 74.3347V79.5773H124.685V74.7737C124.711 74.3839 124.59 73.9983 124.347 73.6928C124.22 73.5627 124.067 73.4616 123.898 73.3965C123.728 73.3313 123.547 73.3037 123.366 73.3156C122.833 73.279 122.308 73.4541 121.904 73.8028C121.727 73.9874 121.59 74.2068 121.503 74.447C121.415 74.6873 121.379 74.9431 121.396 75.1983V79.5746Z" fill="#004E90"/>
<path d="M135.918 77.3009L135.709 79.1836C135.165 79.4185 134.602 79.6073 134.026 79.7482C133.54 79.8663 133.043 79.9274 132.543 79.93C131.978 79.9382 131.416 79.834 130.891 79.6233C130.367 79.4126 129.889 79.0997 129.486 78.7028C129.083 78.3059 128.763 77.8328 128.545 77.3111C128.327 76.7895 128.214 76.2296 128.214 75.6641C128.214 75.0986 128.327 74.5388 128.545 74.0171C128.763 73.4954 129.083 73.0224 129.486 72.6254C129.889 72.2285 130.367 71.9156 130.891 71.7049C131.416 71.4942 131.978 71.39 132.543 71.3982C133.525 71.3507 134.488 71.6853 135.228 72.3319C135.565 72.648 135.83 73.033 136.004 73.4607C136.178 73.8884 136.258 74.3486 136.238 74.81C136.238 74.9491 136.23 75.1737 136.214 75.4964C136.209 75.5335 136.206 75.5708 136.206 75.6082L136.005 75.93L130.368 76.1291C130.387 76.7354 130.645 77.3098 131.086 77.7264C131.567 78.1275 132.181 78.332 132.807 78.2991C133.275 78.2938 133.739 78.2162 134.184 78.0691C134.784 77.866 135.365 77.6089 135.918 77.3009ZM130.406 74.9764L134.286 74.7946V74.6891C134.293 74.4688 134.254 74.2493 134.17 74.0455C134.086 73.8416 133.959 73.6581 133.798 73.5073C133.455 73.1971 133.004 73.0339 132.542 73.0528C132.025 73.0344 131.52 73.2157 131.132 73.5591C130.739 73.9368 130.483 74.4355 130.406 74.9755V74.9764Z" fill="#004E90"/>
<path d="M145.5 79.5744L143.729 79.9481L143.686 79.2699C143.297 79.4837 142.885 79.6526 142.457 79.7735C142.077 79.8766 141.684 79.9288 141.29 79.929C140.773 79.9418 140.259 79.8429 139.783 79.6389C139.307 79.435 138.881 79.1308 138.534 78.7472C137.79 77.9261 137.396 76.8471 137.437 75.7399C137.422 75.1736 137.522 74.6102 137.732 74.0839C137.942 73.5576 138.256 73.0794 138.656 72.6783C139.056 72.2772 139.534 71.9616 140.06 71.7506C140.585 71.5396 141.148 71.4377 141.715 71.4509C141.992 71.4518 142.27 71.474 142.544 71.5173C142.842 71.5653 143.137 71.6334 143.426 71.7209V67.19L145.499 66.8164L145.5 79.5744ZM143.427 77.7954V73.2809C143.198 73.1764 142.962 73.091 142.719 73.0254C142.508 72.9717 142.29 72.9439 142.072 72.9427C141.726 72.9281 141.381 72.9915 141.063 73.1283C140.744 73.265 140.461 73.4716 140.233 73.7327C139.75 74.3325 139.506 75.0893 139.547 75.8581C139.509 76.506 139.706 77.1458 140.102 77.6599C140.29 77.8778 140.525 78.05 140.79 78.1636C141.054 78.2771 141.341 78.329 141.628 78.3154C141.92 78.3122 142.21 78.2672 142.488 78.1817C142.812 78.0833 143.126 77.9539 143.426 77.7954H143.427Z" fill="#004E90"/>
<path d="M147.6 68.8555C147.597 68.6906 147.627 68.5268 147.689 68.3739C147.751 68.221 147.843 68.0821 147.959 67.9655C148.074 67.8485 148.211 67.7556 148.363 67.6922C148.514 67.6288 148.676 67.5962 148.841 67.5962C149.005 67.5962 149.167 67.6288 149.318 67.6922C149.47 67.7556 149.607 67.8485 149.722 67.9655C149.838 68.0821 149.93 68.221 149.992 68.3739C150.054 68.5268 150.084 68.6906 150.081 68.8555C150.084 69.0173 150.054 69.178 149.992 69.3276C149.93 69.4771 149.838 69.6123 149.722 69.7246C149.485 69.9521 149.169 70.0791 148.841 70.0791C148.512 70.0791 148.196 69.9521 147.959 69.7246C147.843 69.6123 147.751 69.4771 147.689 69.3276C147.627 69.178 147.597 69.0173 147.6 68.8555ZM149.889 79.5754H147.791V71.7573L149.89 71.3836L149.889 79.5754Z" fill="#004E90"/>
<path d="M158.066 79.949L157.924 79.3409C157.528 79.5208 157.119 79.6686 156.7 79.7827C156.354 79.8762 155.998 79.9257 155.64 79.9299C155.104 79.9515 154.57 79.8612 154.071 79.6648C153.572 79.4684 153.119 79.1701 152.742 78.789C152.368 78.3907 152.078 77.9217 151.888 77.4097C151.698 76.8977 151.613 76.3528 151.636 75.8073C151.622 75.2375 151.72 74.6704 151.925 74.1386C152.13 73.6069 152.439 73.1211 152.833 72.7091C153.201 72.306 153.651 71.9855 154.153 71.7685C154.654 71.5515 155.196 71.443 155.742 71.45C156.075 71.4525 156.407 71.4937 156.731 71.5728C157.103 71.6641 157.466 71.7892 157.815 71.9464L159.682 71.7555V77.21C159.68 78.0046 159.764 78.7971 159.933 79.5736L158.066 79.949ZM157.623 77.7781V73.4209C157.366 73.2813 157.098 73.1654 156.82 73.0746C156.608 73.0047 156.387 72.967 156.165 72.9627C155.829 72.9519 155.495 73.0182 155.188 73.1566C154.882 73.295 154.611 73.5017 154.397 73.7609C153.926 74.363 153.688 75.1146 153.725 75.8782C153.686 76.5329 153.897 77.178 154.316 77.6827C154.524 77.9033 154.778 78.0758 155.059 78.1882C155.341 78.3007 155.644 78.3503 155.946 78.3336C156.213 78.33 156.477 78.283 156.728 78.1945C157.04 78.0876 157.34 77.9477 157.623 77.7772V77.7781Z" fill="#004E90"/>
</g>
<defs>
<clipPath id="clip0_4382_308986">
<rect width="159.998" height="80" fill="white"/>
</clipPath>
</defs>
</svg>
